HIERARCHY
ROOT pelvis
{
  OFFSET 0 100 0
  CHANNELS 6 Xposition Yposition Zposition Zrotation Xrotation Yrotation
  JOINT pelvis_right_femur
  {
    OFFSET -10.78128 -3.44521 -0.5502486
    CHANNELS 3 Zrotation Xrotation Yrotation
    JOINT right_femur_tibia
    {
      OFFSET -0.8047443 -44.0398 -0.1307829
      CHANNELS 3 Zrotation Xrotation Yrotation
      JOINT right_tibia_foot
      {
        OFFSET 3.006224 -47.83518 -5
        CHANNELS 3 Zrotation Xrotation Yrotation
        End Site
        {
          OFFSET 0 -5 15
        }
      }
    }
  }
  JOINT pelvis_left_femur
  {
    OFFSET 10.78128 -3.44521 -0.5502486
    CHANNELS 3 Zrotation Xrotation Yrotation
    JOINT left_femur_tibia
    {
      OFFSET 0.8047443 -44.0398 -0.1307829
      CHANNELS 3 Zrotation Xrotation Yrotation
      JOINT left_tibia_foot
      {
        OFFSET -4.370144 -48.10324 -4.275266
        CHANNELS 3 Zrotation Xrotation Yrotation
        End Site
        {
          OFFSET 0 -5 15
        }
      }
    }
  }
  JOINT pelvis_spine1
  {
    OFFSET 0 6.468898 -3.129235
    CHANNELS 3 Zrotation Xrotation Yrotation
    JOINT spine1
    {
      OFFSET 0 23.15396 4.99043
      CHANNELS 3 Zrotation Xrotation Yrotation
      JOINT spine2
      {
        OFFSET 0 20.79997 -5.064912
        CHANNELS 3 Zrotation Xrotation Yrotation
        JOINT neck
        {
          OFFSET 0 14.38658 9.616178
          CHANNELS 3 Zrotation Xrotation Yrotation
          End Site
          {
            OFFSET 0 20 0
          }
        }
      }
      JOINT right_manubrium
      {
        OFFSET -5.722621 16.35077 3.967754
        CHANNELS 3 Zrotation Xrotation Yrotation
        JOINT right_clavicle
        {
          OFFSET -13.16364 1.694482 -4.693211
          CHANNELS 3 Zrotation Xrotation Yrotation
          JOINT right_humerus
          {
            OFFSET -28.5034 -0.3100689 -2.792744
            CHANNELS 3 Zrotation Xrotation Yrotation
            JOINT right_radius
            {
              OFFSET -25.15693 0.02248979 -1.271978
              CHANNELS 3 Zrotation Xrotation Yrotation
              End Site
              {
                OFFSET -15 0 0
              }
            }
          }
        }
      }
      JOINT left_manubrium
      {
        OFFSET 5.722621 16.35077 3.967754
        CHANNELS 3 Zrotation Xrotation Yrotation
        JOINT left_clavicle
        {
          OFFSET 13.16364 1.694482 -4.693211
          CHANNELS 3 Zrotation Xrotation Yrotation
          JOINT left_humerus
          {
            OFFSET 29.39168 -1.063119 -2.237045
            CHANNELS 3 Zrotation Xrotation Yrotation
            JOINT left_radius
            {
              OFFSET 24.59957 -0.9528479 0.9047498
              CHANNELS 3 Zrotation Xrotation Yrotation
              End Site
              {
                OFFSET 15 -0 -0
              }
            }
          }
        }
      }
    }
  }
}
MOTION
Frames: 23
Frame Time: 0.0416666666667
0 103.5113 0 1.056296 -3.785721 0.0976255 1.59893 -11.10314 6.732866 -0 40.7912 -0 -6.317919 -15.79305 -3.134803 -6.199818 12.47261 -24.25654 -0 5.897816 -0 0.2510836 -18.19713 23.48246 -0.3150517 -1.489433 3.781377 0.4304592 6.931136 -7.760373 1.164518 22.1009 8.760404 5.488421 -22.59727 8.850982 5.038283 -18.63117 10.27521 90.50744 36.66533 -24.98658 -0 0 16.13345 -7.17734 9.142591 1.702831 7.137706 -21.6438 -2.639097 -101.327 41.73432 29.83495 0 0 -25.26311 -10.05175 18.52447 28.8328
0.1555852 103.8296 1.320688 0.1606994 -2.873112 -0.0356083 3.004268 -14.50431 7.927127 -0 42.23856 -0 -6.77557 -15.19808 -4.133985 -5.603543 12.50561 -24.05569 -0 6.512196 -0 -0.9912168 -19.59963 23.26767 -0.3588507 -1.461017 3.710977 0.5367886 6.902617 -7.785681 1.171097 22.1204 8.69808 5.420395 -22.69724 8.841444 5.07712 -18.56418 10.30599 90.39274 36.5543 -24.91634 -0 0 16.02479 -7.038377 9.0326 1.774974 7.027852 -21.53205 -2.639533 -101.2229 41.74265 29.67371 0 0 -25.19282 -10.06024 18.43434 28.80108
0.313562 103.6716 3.286695 -0.08455278 -1.232507 -0.04659005 3.847758 -21.66823 5.63211 -0 33.79671 -0 -7.29666 -11.7805 -3.396358 -5.699672 12.75633 -21.54411 -0 5.935612 -0 1.054108 -21.6212 21.8684 -0.8836356 -1.177515 3.042899 1.710934 7.179655 -8.183454 1.070794 21.79025 8.317521 4.902272 -23.36341 8.568438 5.982517 -17.27886 10.80677 88.87095 36.06591 -24.1887 -0 0 13.86239 -7.785236 9.684181 3.940941 6.268175 -20.934 -2.759799 -96.85296 39.19966 24.48146 0 0 -25.0747 -7.568416 16.5319 25.31298
0.4692952 103.4875 5.239223 -0.4355841 0.1849954 -0.04624577 4.908605 -24.71058 6.981197 -0 32.72171 -0 -6.701687 -11.9703 -4.068322 -5.624431 12.58729 -21.6842 -0 5.749054 -0 1.07182 -22.77554 21.91055 -1.020934 -1.081948 2.828854 2.074527 7.07822 -8.254258 1.102431 21.85107 8.097828 4.655871 -23.77122 8.562567 6.097622 -17.05797 10.90963 88.49037 35.70089 -23.94888 -0 0 13.48315 -7.19572 9.257944 4.15323 5.92172 -20.5469 -2.716352 -96.53632 39.18792 23.94541 0 0 -24.8752 -7.45091 16.23025 25.03836
0.6209756 103.1031 7.534403 -0.4667644 1.306611 0.05478527 5.277302 -27.95499 6.295159 -0 28.41651 -0 -6.48398 -10.47952 -3.654894 -5.766382 12.82897 -20.83117 -0 5.70364 -0 1.939542 -23.6308 21.27964 -1.108823 -1.020716 2.709981 2.332597 7.137833 -8.33832 1.093282 21.74955 8.004675 4.536897 -23.974 8.523429 6.288002 -16.78578 11.01771 88.15727 35.57556 -23.80316 -0 0 13.01714 -7.196867 9.309057 4.57534 5.801243 -20.43091 -2.695395 -95.6636 38.58113 22.85722 0 0 -24.95473 -6.768759 15.7749 24.13211
0.7747312 102.6348 10.01975 -0.6176151 2.343046 0.2335496 5.833699 -30.33659 6.537215 -0 26.02032 -0 -6.134428 -9.71743 -3.651429 -5.768908 12.95257 -20.60867 -0 5.734026 -0 2.006495 -24.42164 20.85053 -1.162666 -0.9830802 2.64023 2.482043 7.159774 -8.380161 1.090174 21.71186 7.942998 4.4582 -24.10597 8.506137 6.377155 -16.64522 11.07738 87.97941 35.49115 -23.71052 -0 0 12.76523 -7.15775 9.296504 4.791976 5.710172 -20.34206 -2.684356 -95.23887 38.27537 22.31926 0 0 -24.96157 -6.429228 15.53676 23.66794
0.9233708 102.0352 12.90592 -0.6883334 3.054034 0.5158955 6.010821 -32.50917 5.742043 -0 22.55689 -0 -6.091305 -7.961078 -3.130692 -5.786028 13.42338 -19.79875 -0 6.310251 -0 2.20887 -24.79706 19.98154 -1.2152 -0.9530576 2.611211 2.577228 7.253713 -8.416401 1.058796 21.64343 7.932231 4.430436 -24.11427 8.454011 6.469621 -16.50608 11.14145 87.83821 35.50935 -23.61736 -0 0 12.49344 -7.475264 9.493702 5.119869 5.660996 -20.34536 -2.722333 -94.63852 37.70036 21.65151 0 0 -24.96249 -5.960545 15.2494 23.038
1.070437 101.3632 16.19931 -0.8409438 3.659739 0.9039159 6.246572 -34.26193 5.169497 -0 19.70807 -0 -6.061359 -6.289643 -2.710329 -5.705043 13.94813 -19.09693 -0 7.218651 -0 1.931228 -24.98886 19.00042 -1.275412 -0.9259205 2.605463 2.629946 7.37204 -8.436606 1.011919 21.59627 7.942734 4.424061 -24.04236 8.380285 6.532669 -16.39915 11.20129 87.73996 35.57082 -23.50486 -0 0 12.25614 -7.992701 9.77061 5.479443 5.600078 -20.37204 -2.80224 -94.06866 37.06067 21.07123 0 0 -24.87291 -5.558101 14.98533 22.47047
1.212418 100.654 20.03896 -1.052084 3.992363 1.388919 6.417279 -35.55811 4.271397 -0 16.85667 -0 -6.232253 -4.189271 -2.1325 -5.53678 14.70705 -18.06695 -0 9.039598 -0 1.393902 -24.62457 17.69902 -1.357251 -0.8951538 2.621091 2.654276 7.53877 -8.445216 0.941967 21.55944 7.972942 4.43334 -23.87809 8.270892 6.581524 -16.30043 11.27046 87.6534 35.67493 -23.34176 -0 0 12.00644 -8.814069 10.17946 5.952538 5.51234 -20.4219 -2.936723 -93.4131 36.22544 20.4561 0 0 -24.67294 -5.140344 14.68135 21.8499
1.351797 99.997 24.48551 -1.387529 4.120495 1.946344 6.729793 -36.18128 3.568946 -0 14.67102 -0 -6.47144 -2.199151 -1.660801 -5.22432 15.51818 -16.97175 -0 11.82606 -0 0.2457068 -23.69398 16.13618 -1.470809 -0.8562576 2.653339 2.657541 7.741145 -8.435619 0.8532552 21.55295 8.009983 4.441442 -23.63588 8.130719 6.605037 -16.2197 11.3498 87.56316 35.79118 -23.09619 -0 0 11.7635 -9.915855 10.68479 6.536859 5.367708 -20.45932 -3.122902 -92.73074 35.24251 19.87251 0 0 -24.30754 -4.769929 14.34964 21.2429
1.490542 99.51404 29.6036 -1.864172 3.942102 2.512237 7.24278 -35.73727 3.095829 -0 13.38511 -0 -6.814027 -0.5435715 -1.34684 -4.740655 16.2372 -15.71324 -0 16.18401 -0 -1.590063 -21.80619 14.26706 -1.629156 -0.8027238 2.702903 2.647826 7.976469 -8.399995 0.7482819 21.58717 8.044022 4.432626 -23.32456 7.962614 6.599208 -16.16162 11.44483 87.43357 35.89207 -22.71554 -0 0 11.53963 -11.31742 11.27633 7.260712 5.138654 -20.45109 -3.35645 -92.03495 34.10611 19.34249 0 0 -23.7214 -4.467066 13.97707 20.662
1.634785 99.36645 35.34575 -2.453568 3.525204 2.98803 7.963652 -33.81631 3.079971 -0 13.37659 -0 -7.149901 0.08831489 -1.382867 -4.101476 16.38329 -14.43574 -0 22.31837 -0 -4.223456 -18.80829 12.17877 -1.843318 -0.7279099 2.772294 2.632615 8.222618 -8.323112 0.6365 21.67959 8.060983 4.387724 -22.97418 7.780633 6.55558 -16.14525 11.55672 87.21382 35.94048 -22.13036 -0 0 11.38073 -12.9668 11.90249 8.11554 4.79715 -20.34446 -3.616496 -91.40114 32.88982 18.95557 0 0 -22.85422 -4.295106 13.57927 20.17803
1.792093 99.71264 41.52115 -3.01449 2.99636 3.252192 8.660832 -30.12055 3.431046 -0 14.56632 -0 -7.470036 -0.8624075 -1.822412 -3.433795 15.21658 -13.18007 -0 30.38374 -0 -7.269457 -14.67447 10.10723 -2.120642 -0.6256826 2.8681 2.621401 8.445315 -8.185662 0.5314023 21.84179 8.04575 4.291196 -22.63448 7.603031 6.471184 -16.19421 11.68496 86.8305 35.9049 -21.25751 -0 0 11.34523 -14.75788 12.48718 9.071065 4.3273 -20.08254 -3.866174 -90.91361 31.6991 18.80793 0 0 -21.67047 -4.306732 13.17908 19.85545
1.966283 100.6267 47.80209 -3.264727 2.53298 3.222519 8.901351 -24.96431 3.803725 -0 16.14145 -0 -7.868715 -3.294776 -2.492468 -2.981089 12.03992 -11.99193 -0 39.83783 -0 -9.747395 -10.07391 8.504909 -2.455615 -0.4965144 3.000063 2.622712 8.601904 -7.972362 0.4486897 22.06918 7.986111 4.14166 -22.3698 7.446166 6.351334 -16.32887 11.82375 86.2141 35.77596 -20.04269 -0 0 11.48387 -16.52292 12.93787 10.06326 3.748197 -19.63443 -4.0553 -90.64285 30.65929 18.96443 0 0 -20.212 -4.51346 12.80497 19.72317
2.150613 102.0157 53.88579 -2.938619 1.920577 2.886342 8.404054 -19.18442 3.800283 -0 16.96243 -0 -8.475647 -6.03393 -3.001798 -2.906064 6.945508 -10.90155 -0 49.57105 -0 -10.53601 -6.245639 7.959308 -2.824787 -0.3514585 3.183256 2.636243 8.67135 -7.68329 0.3994076 22.32836 7.877858 3.95762 -22.22041 7.310816 6.210463 -16.54953 11.96393 85.33658 35.57099 -18.50269 -0 0 11.80337 -18.12715 13.20181 11.03493 3.127248 -19.035 -4.140472 -90.57735 29.81877 19.37703 0 0 -18.62282 -4.82801 12.4535 19.70552
2.32775 103.6192 59.66429 -2.04776 0.5525411 2.309451 7.318778 -13.46678 3.364551 -0 16.40099 -0 -8.907475 -7.759021 -3.083455 -3.068628 1.081712 -9.941281 -0 57.79021 -0 -9.708484 -4.250485 8.819513 -3.187776 -0.2095157 3.444532 2.637398 8.676382 -7.330404 0.3866848 22.56392 7.729317 3.771754 -22.16233 7.183328 6.062824 -16.84137 12.09558 84.23036 35.31985 -16.72026 -0 0 12.28385 -19.56249 13.31071 11.97046 2.56447 -18.38247 -4.103193 -90.62849 29.10905 19.91032 0 0 -17.09104 -5.084471 12.08028 19.64439
2.480997 105.1356 65.2103 -0.9156507 -1.659041 1.637265 6.108888 -7.893287 2.909727 -0 14.62955 -0 -8.3314 -8.326483 -2.892432 -3.103483 -4.445257 -8.93419 -0 62.49965 -0 -8.529608 -4.00013 10.78696 -3.498627 -0.08868291 3.822844 2.573356 8.665517 -6.918986 0.4079739 22.72575 7.562914 3.619144 -22.11626 7.052732 5.907243 -17.20394 12.20854 82.96206 35.05299 -14.77927 -0 0 12.94011 -20.94406 13.36302 12.88604 2.149761 -17.78114 -3.949155 -90.7213 28.41772 20.48004 0 0 -15.74283 -5.147056 11.64503 19.42074
2.609062 106.3405 70.61927 0.05993083 -3.916354 0.9862972 5.191112 -2.50182 2.823596 -0 12.32261 -0 -6.745443 -8.690976 -2.726028 -2.688718 -9.556541 -7.681887 -0 62.52188 -0 -7.761581 -4.58709 13.10682 -3.717253 -0.0002259379 4.350205 2.38407 8.671868 -6.442739 0.4602778 22.78775 7.411511 3.529159 -21.99984 6.925716 5.720893 -17.66286 12.28926 81.60226 34.79699 -12.73197 -0 0 13.83877 -22.41884 13.4696 13.78955 1.935099 -17.29396 -3.693786 -90.85862 27.69151 21.12621 0 0 -14.61403 -4.99992 11.15926 19.05129
2.736473 107.0707 75.92423 0.6341363 -5.439175 0.3689204 4.693365 2.447412 2.975989 -0 10.12174 -0 -5.125009 -9.771046 -2.518233 -1.719693 -14.67223 -6.266437 -0 58.01695 -0 -7.279982 -5.27894 15.14532 -3.813541 0.05316061 5.029642 2.032661 8.699321 -5.89903 0.5434714 22.73847 7.309515 3.521046 -21.7634 6.824156 5.475527 -18.24318 12.32305 80.2106 34.55802 -10.62207 -0 0 15.05168 -24.09657 13.72192 14.67385 1.936356 -16.93965 -3.353941 -91.08295 26.94137 21.93324 0 0 -13.69664 -4.725303 10.66583 18.65476
2.907216 107.2147 81.1491 0.7650277 -5.938049 -0.2317713 4.528919 6.737185 3.078976 -0 8.38215 -0 -4.070322 -11.79316 -2.063533 -0.2812424 -19.82731 -4.816321 -0 49.87764 -0 -6.861953 -5.761176 16.63159 -3.769443 0.07768082 5.823206 1.527524 8.735052 -5.306098 0.6590295 22.56902 7.282624 3.599293 -21.3998 6.773592 5.159946 -18.93538 12.30293 78.84387 34.30264 -8.52763 -0 0 16.59611 -26.00364 14.16969 15.5249 2.139263 -16.70577 -2.953392 -91.41618 26.19494 22.92689 0 0 -12.97486 -4.431911 10.19205 18.35976
3.169227 106.7721 86.37783 0.5367807 -5.416662 -0.8099275 4.525968 10.21132 2.996532 -0 7.350447 -0 -3.472408 -14.42151 -1.320574 1.37493 -24.53059 -3.409869 -0 39.42789 -0 -6.435783 -5.921067 17.5258 -3.589965 0.08636176 6.65434 0.9285149 8.76414 -4.705927 0.8050387 22.28244 7.337841 3.747047 -20.94446 6.792355 4.789459 -19.68448 12.23687 77.57265 33.96279 -6.575345 -0 0 18.39538 -28.04896 14.79344 16.31838 2.493157 -16.55358 -2.533558 -91.83927 25.47128 24.04414 0 0 -12.41853 -4.205001 9.733017 18.23786
3.557862 105.881 91.76595 0.1361627 -4.146216 -1.346587 4.458365 12.79662 2.735229 -0 7.218706 -0 -2.970154 -16.91479 -0.4093505 2.787543 -28.06597 -2.248912 -0 28.80487 -0 -6.011083 -5.786204 17.93297 -3.31598 0.09302836 7.42878 0.3289024 8.781841 -4.151684 0.9708347 21.91147 7.45816 3.925368 -20.45696 6.882129 4.405554 -20.40497 12.14789 76.48216 33.46861 -4.910833 -0 0 20.2783 -30.03409 15.49917 17.01521 2.91063 -16.42734 -2.156621 -92.29905 24.78037 25.16169 0 0 -11.97109 -4.084158 9.264398 18.28011
4.078465 104.737 97.4775 -0.1851895 -2.765402 -1.845516 4.135513 14.67986 2.445314 -0 8.058124 -0 -2.33944 -18.40708 0.4008153 3.466012 -29.98977 -1.65745 -0 20.49984 -0 -5.637407 -5.577083 18.15035 -3.024292 0.1063668 8.060736 -0.1774656 8.803322 -3.693073 1.134892 21.52322 7.604357 4.081532 -19.9875 7.021183 4.073581 -21.00295 12.06773 75.65893 32.78343 -3.65741 -0 0 22.01078 -31.70505 16.14473 17.56715 3.284692 -16.27489 -1.895758 -92.71764 24.13258 26.13308 0 0 -11.5633 -4.063856 8.761012 18.41545
